<svg xmlns="http://www.w3.org/2000/svg" width="1600" height="1200"><path fill="#f3ebe9" d="M0 0h1600v1200H0z"/><path fill="#fff" d="M1100.5 268.25H506.53c-40.22 0-72.74 32.52-72.74 72.74v558.05c0 40.23 32.52 72.75 72.74 72.75h593.97c40.22 0 72.74-32.52 72.74-72.75V340.99c0-40.22-32.65-72.74-72.74-72.74Z"/><path fill="#f3ebe9" d="M513.33 397.41c16.52 0 29.9-13.38 29.9-29.91 0-16.52-13.38-29.9-29.9-29.9-16.53 0-29.91 13.38-29.91 29.9 0 16.53 13.38 29.91 29.91 29.91ZM600.17 397.41c16.52 0 29.91-13.38 29.91-29.91 0-16.52-13.39-29.9-29.91-29.9s-29.9 13.38-29.9 29.9c0 16.53 13.38 29.91 29.9 29.91ZM687.15 397.41c16.52 0 29.91-13.38 29.91-29.91 0-16.52-13.39-29.9-29.91-29.9s-29.9 13.38-29.9 29.9c0 16.53 13.38 29.91 29.9 29.91Z"/><path fill="#61ccff" d="M800 663.83v184.22c0 .19 0 .19-.19.19-101.87-.19-184.22-82.54-184.22-184.41 0-101.86 82.55-184.4 184.41-184.4v184.4Z"/><path fill="#ffc930" d="m800.2 663.83 175.04-56.78c.2 0 .2 0 .2.19 31.22 96.79-21.67 200.61-118.26 232.22-18.34 6.05-37.47 9.17-56.79 8.98-.19 0-.19 0-.19-.2V663.83c-.2 0-.2 0 0 0Z"/><path fill="#cecdce" d="m800.98 663.05 148.11-107.52h.2c11.51 15.61 20.1 32.78 25.95 50.93 0 .2 0 .2-.19.2l-174.07 56.39c-.2.2 0 .39 0 0Z"/><path fill="#3c2c5b" d="M800 663.44V479.62c0-.19 0-.19.2-.19 60.88 0 112.99 26.53 148.89 75.91v.19L800 663.44c0 .2.2.2 0 0Z"/><path fill="#fff" d="M800.2 767.26c57.12 0 103.42-46.31 103.42-103.43 0-57.11-46.3-103.42-103.42-103.42-57.12 0-103.43 46.31-103.43 103.42 0 57.12 46.31 103.43 103.43 103.43Z"/><path fill="none" stroke="#313131" stroke-linecap="round" stroke-linejoin="round" stroke-width="4" d="M800 663.83c-11.71 0-21.07-9.56-21.07-21.27 0-11.7 9.56-21.07 21.27-21.07 11.71 0 21.07 9.56 21.07 21.07M800 663.83c11.71 0 21.27 9.37 21.27 21.08 0 11.71-9.36 21.27-21.07 21.27s-21.27-9.37-21.27-21.08M800 621.49v-10.93M799.81 717.11v-10.93"/><path fill="#ffc930" d="M1239.17 741.61c-13.71 0-22.24-3.01-24.04-8.48-2.02-6.22 4.58-14.84 18.61-24.27 14.29-9.56 33.98-18.72 55.46-25.81 24.19-8.03 47.93-12.63 65.15-12.63 13.72 0 22.25 3.01 24.04 8.48 4.17 12.63-29.01 35.09-73.95 50.08-24.3 8.02-48.08 12.63-65.27 12.63Z"/><path fill="#b98900" d="M1239.06 741.61c-13.92 0-22.24-2.93-24.04-8.48l-.11-.22 163.21-54.26.15.25c.69 2.16.35 4.63-1.02 7.35-6.53 13.07-36.57 30.65-73.05 42.73-24.17 8.02-47.92 12.63-65.14 12.63Z" opacity=".2"/><path fill="none" stroke="#000" stroke-linecap="round" stroke-linejoin="round" stroke-width="4" d="m1377.68 678.8-161.16 51.84"/><path fill="#ffc930" d="M1150.48 778.46c-13.31 0-36.78-27.2-54.58-63.25-9.57-19.48-16.35-38.98-19.05-54.9-2.71-15.98-.89-26.39 5.09-29.33 1.06-.53 2.29-.79 3.73-.79 13.31 0 36.78 27.18 54.57 63.25 9.58 19.48 16.35 38.98 19.06 54.88 2.7 16 .89 26.41-5.09 29.34-1.17.65-2.68.8-3.73.8Z"/><path fill="#b98900" d="M1150.48 778.35c-13.58 0-36.54-26.6-54.58-63.25-9.74-19.72-16.51-39.21-19.05-54.9-2.71-15.98-.89-26.39 5.09-29.33l.23-.12 72.27 146.65-.23.15c-.96.54-2.18.8-3.73.8Z" opacity=".2"/><path fill="#ffc930" d="M1197.7 761.1c-1.96 0-3.77-.47-5.21-1.36-2.51-1.44-4.3-4.07-5.32-7.82-4.47-16.61 6.98-53.46 27.85-89.6 23.22-40.23 51.76-69.43 67.88-69.43 1.96 0 3.75.47 5.2 1.35 6.86 4 8.22 16.34 3.85 34.76-4.27 18.31-13.64 40.57-26.38 62.66-23.22 40.23-51.77 69.44-67.87 69.44Z"/><path fill="#b98900" d="M1197.78 761.1c-1.96 0-3.77-.47-5.21-1.36l-.22-.11 95.56-165.49.27.1c2.51 1.44 4.3 4.07 5.32 7.81 4.48 16.58-6.92 53.43-27.74 89.61-23.33 40.23-51.92 69.44-67.98 69.44Z" opacity=".2"/><path fill="none" stroke="#000" stroke-linecap="round" stroke-linejoin="round" stroke-width="4" d="m1082.41 632.59 89.03 179.08M1286.39 595.4l-122.84 216.27"/><path fill="#3c2c5b" d="M1070.8 971.52c-8.86-12.24-13.34-25.33-13.34-38.92 0-35.97 31.45-67.42 78.24-78.25l-16.93-61.71 102.03-.05-16.76 61.81c46.78 10.78 78.22 42.23 78.22 78.2 0 13.57-4.57 26.98-13.2 38.79l-.12.13H1070.8Z"/><path fill="none" stroke="#000" stroke-linecap="round" stroke-linejoin="round" stroke-width="4" d="M1137.07 853.91h24.79"/><path fill="#050505" d="M1233.05 971.52v-.15l.24-.36c8.62-11.8 13.17-25.12 13.17-38.52 0-35.75-31.33-67.04-77.96-77.84h-.22l16.88-62.03 35.64-.03-16.76 61.81c46.78 10.78 78.22 42.23 78.22 78.2 0 13.56-4.57 26.98-13.2 38.79l-.12.13h-35.89Z" opacity=".2"/><path d="M1169.75 821.62c-31.78 0-50.02-27.57-49.75-28.84l.83-.14 94.96-.02 4.65.01c-.02 4.48-18.9 28.99-50.69 28.99Z"/><path fill="#ffc930" d="M405.1 377.59c-44.79 11.29-71.9 56.63-60.75 101.34 6.1 24.38 22.98 44.78 45.76 55.39a52.421 52.421 0 0 1 29.16 35.76l6.36 8.1 48.12-10.84 5.1-10.69c-3.53-15.66.38-32.17 10.72-44.51 29.58-35.41 24.99-88.03-10.44-117.73-20.54-17.07-48.08-23.38-74.03-16.82Z"/><path fill="#61ccff" d="m419.3 570.19 4.68 20.77c3.71 16.45 19.98 26.73 36.43 23.03 16.46-3.71 26.74-19.98 23.03-36.44l-4.68-20.76-59.46 13.4Z"/><path fill="none" stroke="#2a4552" stroke-linecap="round" stroke-linejoin="round" stroke-width="4" d="m419.27 570.08 59.58-13.43M422.98 586.53l59.47-13.4"/><path fill="none" stroke="#000" stroke-linecap="round" stroke-linejoin="round" stroke-width="4" d="m439.02 565.63-5.35-23.72c-3.58-15.89-13.27-29.8-27.04-38.5-10.43-6.6-17.66-17.01-20.38-29.04-1.91-8.51 3.47-16.88 11.87-18.77 8.51-1.92 16.88 3.47 18.77 11.87l2 8.85c1.23 5.44 6.65 8.87 12.1 7.64 5.44-1.22 8.87-6.65 7.64-12.09l-1.99-8.86c-1.92-8.51 3.47-16.88 11.87-18.77l.22-.05c8.51-1.92 16.88 3.47 18.78 11.87 2.71 12.03.55 24.68-6.04 35.1-8.68 13.88-11.61 30.52-8 46.52l5.43 23.58"/><path fill="none" stroke="#231f20" stroke-linecap="round" stroke-linejoin="round" stroke-width="4" d="M500.1 840.63c-46.15-29.61-119.95-61.1-148.48-9.93-28.54 51.16 23.81 215 82.65 206.64 55.11-7.88-29.52-146.62-120.05-158.43-90.52-11.81-89.54 121.03-48.21 108.24 26.76-8.26 10.23-78.91-83.54-76.26"/><g fill="none" stroke="#231f20" stroke-linecap="round" stroke-linejoin="round" stroke-width="4"><path d="m1097.55 409.33 128.86-168.32M1262.28 371.92l171.47-136.13"/></g><path fill="#3c2c5b" d="M278.33 748.5c18.61 0 33.7 15.09 33.7 33.7 0 18.62-15.09 33.71-33.7 33.71-18.62 0-33.71-15.09-33.71-33.71 0-18.61 15.09-33.7 33.71-33.7Z"/><path fill="#61ccff" d="M1323.39 442.12c23.04 0 41.72 18.68 41.72 41.71 0 23.04-18.68 41.71-41.72 41.71-23.03 0-41.71-18.67-41.71-41.71 0-23.03 18.68-41.71 41.71-41.71Z"/><path fill="#fff" d="M585.16 223.43c14.19 0 25.7-11.51 25.7-25.7 0-14.2-11.51-25.71-25.7-25.71-14.2 0-25.71 11.51-25.71 25.71 0 14.19 11.51 25.7 25.71 25.7Z"/></svg>